<svg xmlns="http://www.w3.org/2000/svg" viewBox="0 0 119 84">
  <title>myhealth</title>
  <g>
    <g>
      <path d="M1.54,70.5c0-1.32-.05-2.69-.1-4C1.3,64,.91,63.76.91,63.76a4.71,4.71,0,0,1,1.29-.24c1.21,0,2.05.63,2.05,1.45a2.51,2.51,0,0,1-.1.66l.1,0c.5-1.29,2.4-2.13,4.08-2.13,2.48,0,3.48.95,3.58,2.11l.11,0c.58-1.29,2.47-2.13,4.16-2.13,3.47,0,3.84,1.82,3.84,3.66s-.1,3.66-.1,5.92c0,1.19,0,2.77,1.31,2.77a1.85,1.85,0,0,0,1-.37l.11.08a3,3,0,0,1-2.92,1.63,2.1,2.1,0,0,1-2.37-2.13c0-2.27.08-3.85.08-6.53,0-1.74-.06-3.42-2.24-3.42-2.4,0-2.79,3.37-2.79,4.63,0,0,.05,4.55.05,4.71a3.15,3.15,0,0,1-1,2.74c-.94-.13-1.92-.21-1.92-2,0-2.26.08-4,.08-6.63,0-1.74,0-3.42-2.32-3.42-1.1,0-2.63,1.23-2.63,3.63s.11,4.16.11,6.66c0,1.42-.74,1.79-1.66,1.79A10.1,10.1,0,0,1,.91,77C1.09,76.87,1.54,75.21,1.54,70.5Z" fill="#2d2823"/>
      <path d="M24.94,80.63A3.81,3.81,0,0,0,28.65,78l.42-1a2.93,2.93,0,0,1-2.31-2c-.74-2.4-2.37-7.45-3.32-9.56a4.55,4.55,0,0,0-1.05-1.58v-.13a9.05,9.05,0,0,1,2-.21c.9,0,1.82.29,2,1.11a106.45,106.45,0,0,0,3.47,10.26c3.64-10.45,2.27-11.37,4.56-11.37a2.81,2.81,0,0,1,1.21.21v.13a4.87,4.87,0,0,0-1.37,2.43l-3.9,11c-1.42,4-3.6,5.66-5.76,5.66-1.82,0-1.61-1-1.69-2.63A9.41,9.41,0,0,0,24.94,80.63Z" fill="#2d2823"/>
      <path d="M38.5,69.65c0-1.58-.11-7.1-.16-8.37a12.1,12.1,0,0,0-.27-2.79,5.86,5.86,0,0,1,1.45-.24c1.19,0,2.08.61,2.08,1.64s0,3.87-.05,6.47c1,.08,2.66.11,4.24.11,1.81,0,3.81,0,5.08-.11,0-1.87-.08-3.6-.13-5.08a10.36,10.36,0,0,0-.27-2.79,5.86,5.86,0,0,1,1.45-.24c1.19,0,2.08.61,2.08,1.64,0,2.29-.1,4.45-.1,6.66,0,3.21.1,9.24.34,10.4a9.6,9.6,0,0,1-1.82.26c-1.32,0-1.68-.82-1.68-2.19,0-2,.1-4.5.13-7-1.19-.08-2.92-.1-4.53-.1s-3.58,0-4.82.1v2.63c0,1.48.11,3.08.11,4.77,0,1.42-.79,1.79-1.71,1.79A12.63,12.63,0,0,1,38.15,77S38.5,76.21,38.5,69.65Z" fill="#2d2823"/>
      <path d="M64,63.39c3.48,0,4.84,2,4.84,3.76,0,2.64-2.76,3.58-5.08,3.58A7,7,0,0,1,60.87,70l-.11,0c0,3.16,1.48,5.32,4.19,5.32a7.85,7.85,0,0,0,4.13-1.5l.13.13s-.89,3.34-5.31,3.34c-3.53,0-6.14-2.76-6.14-6.63C57.76,67.07,60.16,63.39,64,63.39Zm-.76,6a2.26,2.26,0,0,0,2.47-2.29c0-1.24-.55-2.53-2-2.53-1.87,0-2.87,3.18-2.87,4.18C60.79,69,62.13,69.42,63.24,69.42Z" fill="#2d2823"/>
      <path d="M78.27,68.81v-.24c0-2.21-.5-3.44-2.53-3.44a5.86,5.86,0,0,0-3.63,1.57L72,66.6c.42-1.58,2.55-3.21,4.87-3.21,3.74,0,4.24,2.24,4.24,4.63,0,1.4-.08,3.16-.08,4.61v.31c0,1,0,2.93,1.32,2.93a1.9,1.9,0,0,0,1-.37l.1.08a3,3,0,0,1-2.92,1.63c-1.08,0-2.21-.45-2.24-1.84l-.1-.06a4.07,4.07,0,0,1-3.58,2,3.37,3.37,0,0,1-3.5-3.53C71.11,70,75.4,68.86,78.27,68.81Zm-2.43,6.66c.9,0,2.35-.81,2.35-1.82s.08-2.44.08-3.79c-1.08.19-4.19.66-4.19,3.45C74.08,74.89,74.92,75.47,75.84,75.47Z" fill="#2d2823"/>
      <path d="M85.69,66.49c0-2.47,0-4.84-.13-6.52A7.55,7.55,0,0,0,85.08,57l.08-.11c1.77,0,3.4.32,3.4,2,0,2.66-.11,5.42-.11,8.21,0,2.35,0,4.74.11,7.06,0,.89.26,1.74,1.18,1.74a1.85,1.85,0,0,0,1-.37l.11.08a3,3,0,0,1-2.92,1.63,2.13,2.13,0,0,1-2.37-2.29C85.56,72.76,85.69,69.55,85.69,66.49Z" fill="#2d2823"/>
      <path d="M93.37,67.55c0-2.24-.18-2.35-1.21-2.66V63.78c1.13,0,3.64-2.21,4-3.08l.6.21-.52,2.87h2.16a2.59,2.59,0,0,0,1.42-.26c0,.16,0,.58,0,.71,0,1.11-.52,1.34-1.47,1.34l-2.13,0s-.08,3.11-.08,5.11c0,2.6.23,4.81,2.26,4.81a5.57,5.57,0,0,0,2.79-1.23l.13.1a4.3,4.3,0,0,1-4.08,3c-3.08,0-4-2.16-4-5.11C93.27,70.52,93.37,68.55,93.37,67.55Z" fill="#2d2823"/>
      <path d="M103.59,69.65V64.89c0-2.42-.06-7.35-.58-7.87l.08-.11c3.31,0,3.44,1.19,3.44,4.32a27.21,27.21,0,0,1-.31,4.4l.1,0c.61-1.37,2.72-2.26,4.61-2.26,3.48,0,3.84,1.84,3.84,3.66,0,2-.1,3.74-.1,6,0,1.19,0,2.77,1.31,2.77a1.85,1.85,0,0,0,1-.37l.11.08a3,3,0,0,1-2.92,1.63,2.1,2.1,0,0,1-2.37-2.13c0-2.32.08-3.93.08-6.66,0-1.74,0-3.43-2.32-3.43a3.46,3.46,0,0,0-3.16,3.77c0,2.37.11,4.16.11,6.66,0,1.42-.74,1.79-1.66,1.79A10.1,10.1,0,0,1,103,77S103.59,76.37,103.59,69.65Z" fill="#2d2823"/>
    </g>
    <path d="M74.65,1A17.34,17.34,0,0,0,58.76,11.43,17.31,17.31,0,1,0,32.58,32.21L58.76,52.5,84.94,32.21A17.29,17.29,0,0,0,74.65,1Zm.53,28H66l-2.54-6.87L57.91,39.33,52.3,26.77l-.56,1.6h-9.4V25.75h7.55L52,19.69,57.52,32l5.81-17.86,4.52,12.23h7.33V29Z" fill="#008791"/>
  </g>
</svg>
