<svg xmlns="http://www.w3.org/2000/svg" viewBox="0 0 298.37 77.4">
    <g>
        <g>
            <path d="M124.73,50.34c0-2-.08-4-.16-5.93-.2-3.84-.79-4.19-.79-4.19a7,7,0,0,1,1.94-.36c1.82,0,3.09.95,3.09,2.18a3.54,3.54,0,0,1-.16,1l.16,0c.75-1.94,3.6-3.2,6.13-3.2,3.72,0,5.22,1.42,5.38,3.16l.16,0c.87-1.94,3.72-3.2,6.25-3.2,5.22,0,5.78,2.73,5.78,5.5s-.16,5.5-.16,8.9c0,1.78,0,4.15,2,4.15a2.81,2.81,0,0,0,1.5-.55L156,58a4.54,4.54,0,0,1-4.39,2.45c-1.74,0-3.56-.83-3.56-3.2,0-3.4.12-5.78.12-9.81,0-2.61-.08-5.14-3.36-5.14-3.6,0-4.19,5.06-4.19,7,0,.08.08,6.84.08,7.08,0,2.81-.91,3.4-1.54,4.11-1.42-.2-2.89-.32-2.89-3,0-3.4.12-5.93.12-10,0-2.61-.08-5.14-3.48-5.14-1.66,0-4,1.86-4,5.46s.16,6.25.16,10c0,2.14-1.11,2.69-2.49,2.69a14.94,14.94,0,0,1-2.81-.4C124.06,59.91,124.73,57.42,124.73,50.34Z"/>
            <path d="M159.89,65.57c2.29,0,4.27-1,5.58-4l.63-1.46a4.42,4.42,0,0,1-3.48-3c-1.11-3.6-3.56-11.2-5-14.36a6.77,6.77,0,0,0-1.58-2.37v-.2a13.21,13.21,0,0,1,3-.32c1.34,0,2.73.44,3,1.66A161.91,161.91,0,0,0,167.29,57c5.46-15.7,3.4-17.09,6.84-17.09a4.17,4.17,0,0,1,1.82.32v.2s-1,.67-2.06,3.64L168,60.62c-2.14,6-5.42,8.51-8.66,8.51-2.73,0-2.41-1.5-2.53-4A14.34,14.34,0,0,0,159.89,65.57Z"/>
            <path d="M180.26,49.07c0-2.37-.16-10.68-.24-12.58-.2-3.84-.39-4.19-.39-4.19a8.6,8.6,0,0,1,2.18-.36c1.78,0,3.12.91,3.12,2.45s0,5.81-.08,9.73c1.54.12,4,.16,6.37.16,2.73,0,5.74-.08,7.63-.16,0-2.81-.12-5.42-.2-7.63-.16-3.84-.4-4.19-.4-4.19a8.6,8.6,0,0,1,2.18-.36c1.78,0,3.13.91,3.13,2.45,0,3.44-.16,6.68-.16,10,0,4.83.16,13.88.51,15.63a13.72,13.72,0,0,1-2.73.4c-2,0-2.53-1.23-2.53-3.28,0-3,.16-6.76.2-10.52-1.78-.12-4.39-.16-6.8-.16-2.57,0-5.38.08-7.24.16v4c0,2.22.16,4.63.16,7.16,0,2.14-1.19,2.69-2.57,2.69a18,18,0,0,1-2.65-.4S180.26,58.92,180.26,49.07Z"/>
            <path d="M218.59,39.65c5.22,0,7.28,3,7.28,5.66,0,4-4.15,5.38-7.64,5.38a10.38,10.38,0,0,1-4.35-1.11l-.16.08c0,4.75,2.22,8,6.29,8a11.83,11.83,0,0,0,6.21-2.25l.2.2s-1.35,5-8,5c-5.3,0-9.22-4.15-9.22-10C209.22,45.19,212.82,39.65,218.59,39.65Zm-1.15,9.06c1.78,0,3.72-1,3.72-3.44,0-1.86-.83-3.8-3.09-3.8-2.81,0-4.31,4.79-4.31,6.29C213.77,48.08,215.78,48.71,217.44,48.71Z"/>
            <path d="M240,47.8v-.36c0-3.32-.75-5.18-3.8-5.18a8.78,8.78,0,0,0-5.46,2.37l-.16-.16c.63-2.37,3.84-4.83,7.32-4.83,5.62,0,6.37,3.36,6.37,7,0,2.1-.12,4.75-.12,6.92V54c0,1.54,0,4.39,2,4.39a2.81,2.81,0,0,0,1.5-.55l.16.12a4.54,4.54,0,0,1-4.39,2.45c-1.62,0-3.32-.67-3.36-2.77l-.16-.08a6.12,6.12,0,0,1-5.38,3,5.05,5.05,0,0,1-5.26-5.3C229.27,49.58,235.72,47.88,240,47.8Zm-3.64,10c1.35,0,3.52-1.23,3.52-2.73s.12-3.68.12-5.7c-1.62.28-6.29,1-6.29,5.18C233.74,56.94,235,57.81,236.39,57.81Z"/>
            <path d="M251.18,44.32c0-3.72-.08-7.28-.2-9.81-.2-3.64-.71-4.43-.71-4.43l.12-.16c2.65,0,5.1.47,5.1,2.93,0,4-.16,8.15-.16,12.34,0,3.52,0,7.12.16,10.6,0,1.34.4,2.61,1.78,2.61a2.82,2.82,0,0,0,1.5-.55l.16.12a4.54,4.54,0,0,1-4.39,2.45c-1.74,0-3.56-.79-3.56-3.44C251,53.74,251.18,48.91,251.18,44.32Z"/>
            <path d="M262.73,45.9c0-3.36-.28-3.52-1.82-4V40.25c1.7,0,5.46-3.32,6-4.63l.91.32L267,40.25h3.24a3.81,3.81,0,0,0,2.14-.4,9.9,9.9,0,0,1,0,1.07c0,1.66-.79,2-2.22,2-.43,0-3.2-.08-3.2-.08s-.12,4.67-.12,7.67c0,3.92.36,7.24,3.4,7.24,1.94,0,4.19-1.86,4.19-1.86l.2.16a6.48,6.48,0,0,1-6.13,4.55c-4.63,0-6-3.24-6-7.67C262.57,50.38,262.73,47.41,262.73,45.9Z"/>
            <path d="M278.08,49.07V41.91c0-3.64-.08-11-.87-11.83l.12-.16c5,0,5.18,1.78,5.18,6.49A41.24,41.24,0,0,1,282,43l.16,0c.91-2.06,4.07-3.4,6.92-3.4,5.22,0,5.78,2.77,5.78,5.5,0,3-.16,5.62-.16,9.1,0,1.78,0,4.15,2,4.15a2.81,2.81,0,0,0,1.5-.55l.16.12A4.53,4.53,0,0,1,294,60.42c-1.74,0-3.56-.83-3.56-3.2,0-3.48.12-5.89.12-10,0-2.61-.08-5.14-3.48-5.14-2.14,0-4.75,1.94-4.75,5.66,0,3.56.16,6.25.16,10,0,2.14-1.11,2.69-2.49,2.69a14.94,14.94,0,0,1-2.81-.4S278.08,59.16,278.08,49.07Z"/>
            <path d="M73.81,0A26,26,0,0,0,49.92,15.68,26,26,0,1,0,10.59,46.91L49.92,77.4,89.26,46.91A26,26,0,0,0,73.81,0Zm.79,42.11H60.84L57,31.79,48.64,57.6,40.22,38.73l-.84,2.4H25.25V37.2H36.59l3.19-9.11,8.29,18.56L56.78,19.8l6.8,18.38h11v3.93Z"/>
        </g>
    </g>
</svg>