<svg xmlns="http://www.w3.org/2000/svg" viewBox="0 0 110 84">
  <title>myhealth2</title>
  <g>
    <path d="M107.62,28.53A12.69,12.69,0,0,0,106.13,24a11.17,11.17,0,0,0-3.2-3.59,13.4,13.4,0,0,0-7.84-2.49,32.21,32.21,0,0,1,.16,3.79,10.49,10.49,0,0,1,2.16.7A8.9,8.9,0,0,1,100,24a7.73,7.73,0,0,1,2.45,5.11,16,16,0,0,1-.94,6.4,17.55,17.55,0,0,1-3.36,5.74,23.81,23.81,0,0,1-5.37,4.44,53.38,53.38,0,0,1-13.86,5.51h0a.66.66,0,0,0,.16,1.29,35.7,35.7,0,0,0,15.68-3.09,23.8,23.8,0,0,0,7-4.79,19.79,19.79,0,0,0,4.71-7.32,20.47,20.47,0,0,0,1.09-4.24A15.71,15.71,0,0,0,107.62,28.53Z" fill="#008791"/>
    <path d="M57.61,9.26a14.78,14.78,0,0,1,4.12-4.54A20.25,20.25,0,0,1,67.25,2,19.12,19.12,0,0,1,80,2.22,16.26,16.26,0,0,1,85.66,6a17.78,17.78,0,0,1,3.69,5.7A22,22,0,0,1,90.91,18a29.39,29.39,0,0,1,0,6.22A28.78,28.78,0,0,1,87.16,36a34.47,34.47,0,0,1-7.81,9.12,51.21,51.21,0,0,1-20.43,10,.93.93,0,0,1-1.13-.69.92.92,0,0,1,.44-1h0c6.31-3.68,12.33-7.65,17-12.63A33.35,33.35,0,0,0,81,32.66a24.69,24.69,0,0,0,2.54-9.11,22.62,22.62,0,0,0-1-9.13A10.92,10.92,0,0,0,77.27,8.3,15.35,15.35,0,0,0,68.41,7a16.36,16.36,0,0,0-8.85,3.79l-.05,0a1.24,1.24,0,0,1-1.9-1.53Z" fill="#008791"/>
    <path d="M30.6,51.23h0a53.45,53.45,0,0,1-13.85-5.51,24.09,24.09,0,0,1-5.38-4.44A17.91,17.91,0,0,1,8,35.54a15.94,15.94,0,0,1-.93-6.4A7.68,7.68,0,0,1,9.52,24a8.9,8.9,0,0,1,2.61-1.64,10.11,10.11,0,0,1,2.16-.7,34.5,34.5,0,0,1,.15-3.79,13.37,13.37,0,0,0-7.83,2.49A11.2,11.2,0,0,0,3.4,24a12.67,12.67,0,0,0-1.48,4.55A15.37,15.37,0,0,0,2,33.08a20.47,20.47,0,0,0,1.09,4.24A19.94,19.94,0,0,0,7.8,44.64a23.88,23.88,0,0,0,7,4.79,35.72,35.72,0,0,0,15.69,3.09.65.65,0,0,0,.62-.48A.67.67,0,0,0,30.6,51.23Z" fill="#008791"/>
    <path d="M50,10.74A16.42,16.42,0,0,0,41.12,7,15.31,15.31,0,0,0,32.27,8.3,10.88,10.88,0,0,0,27,14.42,22.62,22.62,0,0,0,26,23.55a24.5,24.5,0,0,0,2.54,9.11,33.08,33.08,0,0,0,5.76,8.05c4.69,5,10.71,8.95,17,12.63h0a.93.93,0,0,1-.69,1.71,51.21,51.21,0,0,1-20.43-10A34.29,34.29,0,0,1,22.38,36a28.78,28.78,0,0,1-3.8-11.78A29.39,29.39,0,0,1,18.63,18a22.3,22.3,0,0,1,1.55-6.28A17.81,17.81,0,0,1,23.88,6a16.08,16.08,0,0,1,5.71-3.79A19.1,19.1,0,0,1,42.28,2,20,20,0,0,1,47.8,4.72a14.66,14.66,0,0,1,4.12,4.54,1.23,1.23,0,0,1-.47,1.68A1.25,1.25,0,0,1,50,10.79Z" fill="#008791"/>
    <g>
      <path d="M20.21,65.25a4.26,4.26,0,0,0-2.75.88,4.62,4.62,0,0,0-1,1,3.72,3.72,0,0,0-3.29-1.9,4.19,4.19,0,0,0-3.29,1.43l0-.8a.4.4,0,0,0-.4-.37H7.64a.38.38,0,0,0-.29.12.38.38,0,0,0-.11.3c.07.87.09,1.78.09,3v8.27a.4.4,0,0,0,.4.4h2a.4.4,0,0,0,.39-.4V70.41a2.7,2.7,0,0,1,2.33-2.68c1.83,0,2,2.08,2,2.72v6.8a.4.4,0,0,0,.4.4h2a.4.4,0,0,0,.4-.4v-7a3,3,0,0,1,.14-.9,2.29,2.29,0,0,1,2.07-1.61c1.37,0,2.06,1,2.06,3.1v6.42a.4.4,0,0,0,.4.4h2a.4.4,0,0,0,.39-.4V70.57C24.33,65.51,20.9,65.25,20.21,65.25Z" fill="#2d2823"/>
      <path d="M36.15,65.51H34a.39.39,0,0,0-.37.27l-2.25,6.66c-.14.39-.26.8-.38,1.19-.12-.38-.25-.78-.38-1.16l-2.49-6.7a.38.38,0,0,0-.37-.26H25.48a.37.37,0,0,0-.32.17.38.38,0,0,0,0,.37L29.31,76.5a1.46,1.46,0,0,1,.12.4,3.13,3.13,0,0,1-.13.33,6,6,0,0,1-1.63,2.16,5.27,5.27,0,0,1-1.67.94.38.38,0,0,0-.26.48l.51,1.74a.4.4,0,0,0,.38.28h.07a5.88,5.88,0,0,0,2.72-1.43C31,80,32,77.8,33.43,74.14L36.52,66a.39.39,0,0,0,0-.36A.39.39,0,0,0,36.15,65.51Z" fill="#2d2823"/>
      <path d="M49.85,61.05H47.79a.4.4,0,0,0-.4.4v6.22H40.54V61.45a.4.4,0,0,0-.4-.4h-2a.39.39,0,0,0-.39.4v15.8a.39.39,0,0,0,.39.4h2a.4.4,0,0,0,.4-.4v-7h6.85v7a.4.4,0,0,0,.4.4h2.06a.4.4,0,0,0,.4-.4V61.45A.4.4,0,0,0,49.85,61.05Z" fill="#2d2823"/>
      <path d="M57.82,65.25c-3.36,0-5.71,2.68-5.71,6.52s2.34,6.11,6,6.11A9.49,9.49,0,0,0,62,77.14a.38.38,0,0,0,.22-.45l-.35-1.47a.41.41,0,0,0-.21-.27.42.42,0,0,0-.33,0,7,7,0,0,1-3,.56,3.23,3.23,0,0,1-3.48-3.15h7.56c.21,0,.39-.25.41-.45a9,9,0,0,0,.06-.91C62.91,68.13,61.34,65.25,57.82,65.25ZM55,70.08a2.91,2.91,0,0,1,2.7-2.56,2.28,2.28,0,0,1,1.69.63,3.17,3.17,0,0,1,.76,1.93Z" fill="#2d2823"/>
      <path d="M73.44,70.29c0-3.25-1.67-5-4.71-5a7.44,7.44,0,0,0-4,1.07.39.39,0,0,0-.15.46l.47,1.36a.4.4,0,0,0,.24.25.4.4,0,0,0,.34,0,5.25,5.25,0,0,1,2.74-.79,1.92,1.92,0,0,1,2.19,2.08c-2.64,0-4.55.63-5.69,1.77a3.87,3.87,0,0,0-1.14,2.84,3.64,3.64,0,0,0,3.87,3.66,4.72,4.72,0,0,0,3.24-1.23l.07.62a.41.41,0,0,0,.4.35h1.87a.41.41,0,0,0,.31-.14.42.42,0,0,0,.08-.33,15.44,15.44,0,0,1-.18-2.65Zm-5.25,5.3A1.45,1.45,0,0,1,66.64,74a1.65,1.65,0,0,1,.49-1.25,5.27,5.27,0,0,1,3.53-.92v1.58a1.76,1.76,0,0,1-.1.53A2.45,2.45,0,0,1,68.19,75.59Z" fill="#2d2823"/>
      <path d="M76.37,60.21h2.06a.39.39,0,0,1,.39.39V77.25a.39.39,0,0,1-.39.39H76.37a.4.4,0,0,1-.4-.4V60.6A.4.4,0,0,1,76.37,60.21Z" fill="#2d2823"/>
      <path d="M87.35,65.51H84.79V62.64a.39.39,0,0,0-.5-.38l-2,.54a.39.39,0,0,0-.3.38v2.33H80.62a.39.39,0,0,0-.4.39v1.57a.4.4,0,0,0,.4.4H82v5.8a4.48,4.48,0,0,0,.9,3.21,3.21,3.21,0,0,0,2.52,1,5.44,5.44,0,0,0,2-.31.39.39,0,0,0,.25-.39l-.1-1.54a.37.37,0,0,0-.16-.3.41.41,0,0,0-.34-.06,4.12,4.12,0,0,1-1.09.12c-.56,0-1.15-.13-1.15-1.8V67.87h2.56a.4.4,0,0,0,.4-.4V65.9A.39.39,0,0,0,87.35,65.51Z" fill="#2d2823"/>
      <path d="M95.37,65.25a4.59,4.59,0,0,0-2.3.64,4.34,4.34,0,0,0-.94.7v-6a.39.39,0,0,0-.39-.39H89.67a.38.38,0,0,0-.39.39V77.25a.39.39,0,0,0,.39.4h2.07a.4.4,0,0,0,.39-.4V70.41a2.18,2.18,0,0,1,.12-.86,2.56,2.56,0,0,1,2.39-1.8c1.85,0,2.23,1.62,2.23,3v6.52a.4.4,0,0,0,.4.4h2.06a.4.4,0,0,0,.4-.4V70.5C99.73,66.63,97.38,65.25,95.37,65.25Z" fill="#2d2823"/>
    </g>
  </g>
</svg>
