<svg xmlns="http://www.w3.org/2000/svg" viewBox="0 0 32 26">
  <title>twitter</title>
  <path d="M29.91,4.47a11.43,11.43,0,0,1-2.66,2.76.18.18,0,0,0-.1.18c0,.43,0,.85,0,1.27a15.21,15.21,0,0,1-.29,2.43,17.16,17.16,0,0,1-2,5.31,16.12,16.12,0,0,1-3.61,4.32A15.45,15.45,0,0,1,14.71,24a18.06,18.06,0,0,1-8.85-.34A15.2,15.2,0,0,1,2,21.84a12,12,0,0,0,4.43-.37,11.3,11.3,0,0,0,4-2l-.52-.05A5.77,5.77,0,0,1,5.17,15.6c0-.14,0-.15.1-.13a5.87,5.87,0,0,0,2.21-.06l.16-.05-.08,0A5.75,5.75,0,0,1,3.1,9.78c0-.12,0-.14.13-.08a5.83,5.83,0,0,0,2,.62l.39,0s0,0,0,0a.18.18,0,0,0-.07-.05A5.83,5.83,0,0,1,4.1,8.74a5.64,5.64,0,0,1-.91-3.81,5.42,5.42,0,0,1,.66-2.11c.08-.14.09-.14.19,0a17.25,17.25,0,0,0,2,2.06A16.25,16.25,0,0,0,13,8.3a17,17,0,0,0,2.66.38c.14,0,.14,0,.11-.14a5.83,5.83,0,0,1-.06-1.91,5.61,5.61,0,0,1,1.83-3.5,5.76,5.76,0,0,1,8,.21.25.25,0,0,0,.25.07,11.57,11.57,0,0,0,3.33-1.26c.05,0,.1-.09.14-.06s0,.11,0,.16A5.74,5.74,0,0,1,27,5.07l-.16.11v0A11.89,11.89,0,0,0,30,4.34a.14.14,0,0,1-.06.13" fill="#fff"/>
</svg>
